<svg width="24" height="24" viewBox="0 0 24 24" fill="none" xmlns="http://www.w3.org/2000/svg">
<g clip-path="url(#clip0_54_2)">
<circle cx="12" cy="7" r="3" stroke="black" stroke-width="2"/>
<mask id="path-2-inside-1_54_2" fill="white">
<path d="M21 20.5C21 19.3838 20.7672 18.2785 20.3149 17.2472C19.8626 16.2159 19.1997 15.2789 18.364 14.4896C17.5282 13.7003 16.5361 13.0742 15.4442 12.647C14.3522 12.2199 13.1819 12 12 12C10.8181 12 9.64778 12.2199 8.55585 12.647C7.46392 13.0742 6.47177 13.7003 5.63604 14.4896C4.80031 15.2789 4.13738 16.2159 3.68508 17.2472C3.23279 18.2785 3 19.3838 3 20.5L12 20.5H21Z"/>
</mask>
<path d="M21 20.5C21 19.3838 20.7672 18.2785 20.3149 17.2472C19.8626 16.2159 19.1997 15.2789 18.364 14.4896C17.5282 13.7003 16.5361 13.0742 15.4442 12.647C14.3522 12.2199 13.1819 12 12 12C10.8181 12 9.64778 12.2199 8.55585 12.647C7.46392 13.0742 6.47177 13.7003 5.63604 14.4896C4.80031 15.2789 4.13738 16.2159 3.68508 17.2472C3.23279 18.2785 3 19.3838 3 20.5L12 20.5H21Z" stroke="black" stroke-width="4" mask="url(#path-2-inside-1_54_2)"/>
</g>
<defs>
<clipPath id="clip0_54_2">
<rect width="24" height="24" fill="white"/>
</clipPath>
</defs>
</svg>
