<svg width="24" height="24" viewBox="0 0 24 24" fill="none" xmlns="http://www.w3.org/2000/svg">
<path d="M14.9375 4.01074C15.9461 4.11303 16.7334 4.96437 16.7334 6V8.44434H15.2334V6C15.2334 5.72388 15.0095 5.50003 14.7334 5.5H7C6.72386 5.5 6.5 5.72386 6.5 6V18C6.5 18.2761 6.72386 18.5 7 18.5H14.7334C15.0095 18.5 15.2334 18.2761 15.2334 18V15.5557H16.7334V18L16.7227 18.2041C16.6272 19.1456 15.879 19.8938 14.9375 19.9893L14.7334 20H7L6.7959 19.9893C5.78722 19.887 5 19.0357 5 18V6C5 4.89543 5.89543 4 7 4H14.7334L14.9375 4.01074Z" fill="#FF7575"/>
<rect x="9" y="11" width="10" height="2" rx="0.75" fill="#FF7575"/>
<path d="M21 12L17.25 14.5981V9.40192L21 12Z" fill="#FF7575"/>
</svg>
