<svg width="24" height="24" viewBox="0 0 24 24" fill="none" xmlns="http://www.w3.org/2000/svg">
<path d="M18 15V17V17C18 17.5523 17.5523 18 17 18H16H14H7V18C6.44772 18 6 17.5523 6 17V5V5C6 4.44772 6.44772 4 7 4H8H17V4C17.5523 4 18 4.44772 18 5V7" stroke="#FF6666" stroke-width="2"/>
<path d="M18.5 12.5039V9.49609L20.2373 11L18.5 12.5039Z" fill="#FF6666" stroke="#FF6666"/>
<path d="M8 11H18" stroke="#FF6666" stroke-width="2"/>
<path d="M7.16699 4.70215L7.28711 4.73047L13.2871 6.53027C13.7101 6.65717 14 7.04667 14 7.48828V19.3115C14 19.9395 13.4326 20.4011 12.833 20.2979L12.7129 20.2695L6.71289 18.4697C6.28991 18.3428 6 17.9533 6 17.5117V5.68848C6 5.06052 6.56742 4.59887 7.16699 4.70215Z" fill="white" stroke="#FF6666" stroke-width="2"/>
</svg>
