<svg width="24" height="24" viewBox="0 0 24 24" fill="none" xmlns="http://www.w3.org/2000/svg">
<path d="M9.66699 9.25781L9.83008 9.2998L15.3301 11.2256C15.7312 11.366 16 11.744 16 12.1689V14C16 14.5523 15.5523 15 15 15H4C3.44772 15 3 14.5523 3 14V12.1689C3.00001 11.744 3.26884 11.366 3.66992 11.2256L9.16992 9.2998C9.33023 9.24376 9.50134 9.22976 9.66699 9.25781Z" fill="white" stroke="black" stroke-width="2"/>
<path d="M9.5 3C11.0849 3 12.25 4.18315 12.25 5.5C12.25 6.81685 11.0849 8 9.5 8C7.91511 8 6.75 6.81685 6.75 5.5C6.75 4.18315 7.91511 3 9.5 3Z" fill="white" stroke="black" stroke-width="2"/>
<path d="M14.667 15.2578L14.8301 15.2998L20.3301 17.2256C20.7312 17.366 21 17.744 21 18.1689V20C21 20.5523 20.5523 21 20 21H9C8.44772 21 8 20.5523 8 20V18.1689C8.00001 17.744 8.26884 17.366 8.66992 17.2256L14.1699 15.2998C14.3302 15.2438 14.5013 15.2298 14.667 15.2578Z" fill="white" stroke="black" stroke-width="2"/>
<path d="M14.5 9C16.0849 9 17.25 10.1832 17.25 11.5C17.25 12.8168 16.0849 14 14.5 14C12.9151 14 11.75 12.8168 11.75 11.5C11.75 10.1832 12.9151 9 14.5 9Z" fill="white" stroke="black" stroke-width="2"/>
</svg>
