<svg width="24" height="24" viewBox="0 0 24 24" fill="none" xmlns="http://www.w3.org/2000/svg">
<g clip-path="url(#clip0_65_2)">
<mask id="path-1-inside-1_65_2" fill="white">
<path d="M22 22C22 19.0826 20.9464 16.2847 19.0711 14.2218C17.1957 12.1589 14.6522 11 12 11C9.34784 11 6.8043 12.1589 4.92893 14.2218C3.05357 16.2847 2 19.0826 2 22L12 22H22Z"/>
</mask>
<path d="M22 22C22 19.0826 20.9464 16.2847 19.0711 14.2218C17.1957 12.1589 14.6522 11 12 11C9.34784 11 6.8043 12.1589 4.92893 14.2218C3.05357 16.2847 2 19.0826 2 22L12 22H22Z" stroke="black" stroke-width="3" mask="url(#path-1-inside-1_65_2)"/>
<circle cx="12" cy="7" r="4.25" stroke="black" stroke-width="1.5"/>
</g>
<defs>
<clipPath id="clip0_65_2">
<rect width="24" height="24" fill="white"/>
</clipPath>
</defs>
</svg>
