<svg width="24" height="24" viewBox="0 0 24 24" fill="none" xmlns="http://www.w3.org/2000/svg">
<g clip-path="url(#clip0_65_2)">
<mask id="path-1-inside-1_65_2" fill="white">
<path d="M20 19C20 16.8783 19.1571 14.8434 17.6569 13.3431C16.1566 11.8429 14.1217 11 12 11C9.87827 11 7.84344 11.8429 6.34315 13.3431C4.84286 14.8434 4 16.8783 4 19L12 19H20Z"/>
</mask>
<path d="M20 19C20 16.8783 19.1571 14.8434 17.6569 13.3431C16.1566 11.8429 14.1217 11 12 11C9.87827 11 7.84344 11.8429 6.34315 13.3431C4.84286 14.8434 4 16.8783 4 19L12 19H20Z" stroke="black" stroke-width="3" mask="url(#path-1-inside-1_65_2)"/>
<circle cx="12" cy="8" r="3.25" stroke="black" stroke-width="1.5"/>
</g>
<defs>
<clipPath id="clip0_65_2">
<rect width="24" height="24" fill="white"/>
</clipPath>
</defs>
</svg>
