<svg width="24" height="24" viewBox="0 0 24 24" fill="none" xmlns="http://www.w3.org/2000/svg">
<g clip-path="url(#clip0_65_2)">
<mask id="path-1-inside-1_65_2" fill="white">
<path d="M22 21.2609C22 18.6779 20.9464 16.2007 19.0711 14.3743C17.1957 12.5478 14.6522 11.5217 12 11.5217C9.34784 11.5217 6.8043 12.5478 4.92893 14.3743C3.05357 16.2007 2 18.6779 2 21.2609L12 21.2609H22Z"/>
</mask>
<path d="M22 21.2609C22 18.6779 20.9464 16.2007 19.0711 14.3743C17.1957 12.5478 14.6522 11.5217 12 11.5217C9.34784 11.5217 6.8043 12.5478 4.92893 14.3743C3.05357 16.2007 2 18.6779 2 21.2609L12 21.2609H22Z" stroke="black" stroke-width="3" mask="url(#path-1-inside-1_65_2)"/>
<circle cx="12" cy="8" r="4.25" stroke="black" stroke-width="1.5"/>
</g>
<defs>
<clipPath id="clip0_65_2">
<rect width="24" height="24" fill="white"/>
</clipPath>
</defs>
</svg>
