<svg width="24" height="24" viewBox="0 0 24 24" fill="none" xmlns="http://www.w3.org/2000/svg">
<rect width="24" height="24" fill="white"/>
<path d="M11.25 5.5C11.6944 5.16667 12.3056 5.16667 12.75 5.5L18.75 10C19.0648 10.2361 19.25 10.6066 19.25 11V18C19.25 18.6904 18.6904 19.25 18 19.25H6C5.30964 19.25 4.75 18.6904 4.75 18V11C4.75 10.6066 4.93524 10.2361 5.25 10L11.25 5.5Z" stroke="black" stroke-width="1.5"/>
<path d="M9 19V15C9 13.8954 9.89543 13 11 13H13C14.1046 13 15 13.8954 15 15V19" stroke="black" stroke-width="1.5"/>
</svg>
