<svg width="24" height="24" viewBox="0 0 24 24" fill="none" xmlns="http://www.w3.org/2000/svg">
<g clip-path="url(#clip0_97_29)">
<mask id="path-1-inside-1_97_29" fill="white">
<path d="M13.3043 21.5978C13.3043 20.0988 12.7089 18.6611 11.6489 17.6011C10.5889 16.5411 9.15122 15.9456 7.65217 15.9456C6.15312 15.9456 4.71547 16.5411 3.65548 17.6011C2.5955 18.6611 2 20.0988 2 21.5978L7.65217 21.5978H13.3043Z"/>
</mask>
<path d="M13.3043 21.5978C13.3043 20.0988 12.7089 18.6611 11.6489 17.6011C10.5889 16.5411 9.15122 15.9456 7.65217 15.9456C6.15312 15.9456 4.71547 16.5411 3.65548 17.6011C2.5955 18.6611 2 20.0988 2 21.5978L7.65217 21.5978H13.3043Z" stroke="black" stroke-width="3" mask="url(#path-1-inside-1_97_29)"/>
<circle cx="7.65217" cy="13.8261" r="2.07609" stroke="black" stroke-width="1.5"/>
<mask id="path-3-inside-2_97_29" fill="white">
<path d="M22 12.4348C22 10.9588 21.4137 9.54326 20.37 8.49958C19.3263 7.4559 17.9108 6.86957 16.4348 6.86957C14.9588 6.86957 13.5433 7.4559 12.4996 8.49958C11.4559 9.54326 10.8696 10.9588 10.8696 12.4348L16.4348 12.4348H22Z"/>
</mask>
<path d="M22 12.4348C22 10.9588 21.4137 9.54326 20.37 8.49958C19.3263 7.4559 17.9108 6.86957 16.4348 6.86957C14.9588 6.86957 13.5433 7.4559 12.4996 8.49958C11.4559 9.54326 10.8696 10.9588 10.8696 12.4348L16.4348 12.4348H22Z" stroke="black" stroke-width="3" mask="url(#path-3-inside-2_97_29)"/>
<circle cx="16.4348" cy="4.78261" r="2.03261" stroke="black" stroke-width="1.5"/>
<path d="M18.9385 12.9482L18.9908 15.9477C19.0101 17.0521 18.1304 17.963 17.026 17.9823L15.0263 18.0172" stroke="black" stroke-width="1.5"/>
<path d="M13.0266 18.0521L15.9913 16.0001L16.0611 19.9995L13.0266 18.0521Z" fill="black"/>
<path d="M7 10L7 7C7 5.89543 7.89543 5 9 5L11 5" stroke="black" stroke-width="1.5"/>
<path d="M13 5L10 7V3L13 5Z" fill="black"/>
</g>
<defs>
<clipPath id="clip0_97_29">
<rect width="24" height="24" fill="white"/>
</clipPath>
</defs>
</svg>
