<svg width="24" height="24" viewBox="0 0 24 24" fill="none" xmlns="http://www.w3.org/2000/svg">
<g clip-path="url(#clip0_95_11)">
<mask id="path-1-inside-1_95_11" fill="white">
<path d="M12.7391 21.1304C12.7391 19.8389 12.2261 18.6004 11.3129 17.6871C10.3996 16.7739 9.16105 16.2609 7.86957 16.2609C6.57808 16.2609 5.33948 16.7739 4.42626 17.6871C3.51304 18.6004 3 19.8389 3 21.1304L7.86957 21.1304H12.7391Z"/>
</mask>
<path d="M12.7391 21.1304C12.7391 19.8389 12.2261 18.6004 11.3129 17.6871C10.3996 16.7739 9.16105 16.2609 7.86957 16.2609C6.57808 16.2609 5.33948 16.7739 4.42626 17.6871C3.51304 18.6004 3 19.8389 3 21.1304L7.86957 21.1304H12.7391Z" stroke="black" stroke-width="3" mask="url(#path-1-inside-1_95_11)"/>
<circle cx="7.86956" cy="14.4348" r="1.68478" stroke="black" stroke-width="1.5"/>
<mask id="path-3-inside-2_95_11" fill="white">
<path d="M20.7391 12.1304C20.7391 10.8389 20.2261 9.60035 19.3129 8.68713C18.3996 7.77391 17.1611 7.26087 15.8696 7.26087C14.5781 7.26087 13.3395 7.77391 12.4263 8.68713C11.513 9.60035 11 10.8389 11 12.1304L15.8696 12.1304H20.7391Z"/>
</mask>
<path d="M20.7391 12.1304C20.7391 10.8389 20.2261 9.60035 19.3129 8.68713C18.3996 7.77391 17.1611 7.26087 15.8696 7.26087C14.5781 7.26087 13.3395 7.77391 12.4263 8.68713C11.513 9.60035 11 10.8389 11 12.1304L15.8696 12.1304H20.7391Z" stroke="black" stroke-width="3" mask="url(#path-3-inside-2_95_11)"/>
<circle cx="15.8696" cy="5.43478" r="1.68478" stroke="black" stroke-width="1.5"/>
</g>
<defs>
<clipPath id="clip0_95_11">
<rect width="24" height="24" fill="white"/>
</clipPath>
</defs>
</svg>
