<svg width="24" height="24" viewBox="0 0 24 24" fill="none" xmlns="http://www.w3.org/2000/svg">
<g clip-path="url(#clip0_95_11)">
<mask id="path-1-inside-1_95_11" fill="white">
<path d="M13 20.3125C13 18.8538 12.4205 17.4549 11.3891 16.4234C10.3576 15.392 8.95869 14.8125 7.5 14.8125C6.04131 14.8125 4.64236 15.392 3.61091 16.4234C2.57946 17.4549 2 18.8538 2 20.3125L7.5 20.3125H13Z"/>
</mask>
<path d="M13 20.3125C13 18.8538 12.4205 17.4549 11.3891 16.4234C10.3576 15.392 8.95869 14.8125 7.5 14.8125C6.04131 14.8125 4.64236 15.392 3.61091 16.4234C2.57946 17.4549 2 18.8538 2 20.3125L7.5 20.3125H13Z" stroke="black" stroke-width="3" mask="url(#path-1-inside-1_95_11)"/>
<circle cx="7.5" cy="12.75" r="2" stroke="black" stroke-width="1.5"/>
<mask id="path-3-inside-2_95_11" fill="white">
<path d="M22 13.3125C22 11.8538 21.4205 10.4549 20.3891 9.42341C19.3576 8.39196 17.9587 7.8125 16.5 7.8125C15.0413 7.8125 13.6424 8.39196 12.6109 9.42341C11.5795 10.4549 11 11.8538 11 13.3125L16.5 13.3125H22Z"/>
</mask>
<path d="M22 13.3125C22 11.8538 21.4205 10.4549 20.3891 9.42341C19.3576 8.39196 17.9587 7.8125 16.5 7.8125C15.0413 7.8125 13.6424 8.39196 12.6109 9.42341C11.5795 10.4549 11 11.8538 11 13.3125L16.5 13.3125H22Z" stroke="black" stroke-width="3" mask="url(#path-3-inside-2_95_11)"/>
<circle cx="16.5" cy="5.75" r="2" stroke="black" stroke-width="1.5"/>
</g>
<defs>
<clipPath id="clip0_95_11">
<rect width="24" height="24" fill="white"/>
</clipPath>
</defs>
</svg>
