<svg width="24" height="24" viewBox="0 0 24 24" fill="none" xmlns="http://www.w3.org/2000/svg">
<rect width="24" height="24" fill="white"/>
<path fill-rule="evenodd" clip-rule="evenodd" d="M2.33975 15.2679L6.05827 12L2.33975 8.73205L4.33975 5.26795L9.02914 6.85431L10 2H14L14.9709 6.85431L19.6603 5.26795L21.6603 8.73205L17.9417 12L21.6603 15.2679L19.6603 18.7321L14.9709 17.1457L14 22H10L9.02914 17.1457L4.33975 18.7321L2.33975 15.2679ZM12 15C13.6569 15 15 13.6569 15 12C15 10.3431 13.6569 9 12 9C10.3431 9 9 10.3431 9 12C9 13.6569 10.3431 15 12 15Z" fill="#D9D9D9"/>
</svg>
