<?xml version="1.0" encoding="UTF-8"?>
<svg xmlns="http://www.w3.org/2000/svg" xmlns:xlink="http://www.w3.org/1999/xlink" width="70px" height="70px" viewBox="0 0 70 70" version="1.1">
<g id="surface1">
<path style="fill-rule:evenodd;fill:rgb(100%,100%,100%);fill-opacity:1;stroke-width:1.5;stroke-linecap:round;stroke-linejoin:round;stroke:rgb(0%,0%,0%);stroke-opacity:1;stroke-miterlimit:4;" d="M 8.000558 12.000837 C 8.000558 13.105748 7.104074 13.999721 5.999163 13.999721 C 4.894252 13.999721 4.000279 13.105748 4.000279 12.000837 C 4.000279 10.895926 4.894252 9.999442 5.999163 9.999442 C 7.104074 9.999442 8.000558 10.895926 8.000558 12.000837 Z M 24.498884 7.500837 C 24.498884 8.605748 23.604911 9.499721 22.5 9.499721 C 21.395089 9.499721 20.501116 8.605748 20.501116 7.500837 C 20.501116 6.395926 21.395089 5.499442 22.5 5.499442 C 23.604911 5.499442 24.498884 6.395926 24.498884 7.500837 Z M 40.999721 12.000837 C 40.999721 13.105748 40.105748 13.999721 39.000837 13.999721 C 37.895926 13.999721 36.999442 13.105748 36.999442 12.000837 C 36.999442 10.895926 37.895926 9.999442 39.000837 9.999442 C 40.105748 9.999442 40.999721 10.895926 40.999721 12.000837 Z M 16.001116 8.500279 C 16.001116 9.60519 15.104632 10.499163 13.999721 10.499163 C 12.89481 10.499163 12.000837 9.60519 12.000837 8.500279 C 12.000837 7.395368 12.89481 6.498884 13.999721 6.498884 C 15.104632 6.498884 16.001116 7.395368 16.001116 8.500279 Z M 32.999163 9 C 32.999163 10.104911 32.10519 10.998884 31.000279 10.998884 C 29.895368 10.998884 28.998884 10.104911 28.998884 9 C 28.998884 7.895089 29.895368 7.001116 31.000279 7.001116 C 32.10519 7.001116 32.999163 7.895089 32.999163 9 Z M 32.999163 9 " transform="matrix(1.555556,0,0,1.555556,0,0)"/>
<path style="fill-rule:evenodd;fill:rgb(100%,100%,100%);fill-opacity:1;stroke-width:1.5;stroke-linecap:butt;stroke-linejoin:round;stroke:rgb(0%,0%,0%);stroke-opacity:1;stroke-miterlimit:4;" d="M 9 26.000558 C 17.500279 24.498884 30.000837 24.498884 36 26.000558 L 37.998884 13.999721 L 31.000279 25.001116 L 31.000279 10.998884 L 25.500837 24.498884 L 22.5 9.499721 L 19.499163 24.498884 L 13.999721 10.499163 L 13.999721 25.001116 L 7.001116 13.999721 Z M 9 26.000558 " transform="matrix(1.555556,0,0,1.555556,0,0)"/>
<path style="fill-rule:evenodd;fill:rgb(100%,100%,100%);fill-opacity:1;stroke-width:1.5;stroke-linecap:butt;stroke-linejoin:round;stroke:rgb(0%,0%,0%);stroke-opacity:1;stroke-miterlimit:4;" d="M 9 26.000558 C 9 27.999442 10.499163 27.999442 11.501116 30.000837 C 12.500558 31.5 12.500558 31.000279 12.000837 33.498884 C 10.499163 34.500837 10.499163 36 10.499163 36 C 9 37.499163 10.998884 38.501116 10.998884 38.501116 C 17.500279 39.500558 27.499721 39.500558 34.001116 38.501116 C 34.001116 38.501116 35.500279 37.499163 34.001116 36 C 34.001116 36 34.500837 34.500837 32.999163 33.498884 C 32.499442 31.000279 32.499442 31.5 33.498884 30.000837 C 34.500837 27.999442 36 27.999442 36 26.000558 C 27.499721 24.498884 17.500279 24.498884 9 26.000558 Z M 9 26.000558 " transform="matrix(1.555556,0,0,1.555556,0,0)"/>
<path style="fill:none;stroke-width:1.5;stroke-linecap:round;stroke-linejoin:round;stroke:rgb(0%,0%,0%);stroke-opacity:1;stroke-miterlimit:4;" d="M 11.501116 30.000837 C 14.999163 28.998884 30.000837 28.998884 33.498884 30.000837 M 12.000837 33.498884 C 18 32.499442 27 32.499442 32.999163 33.498884 " transform="matrix(1.555556,0,0,1.555556,0,0)"/>
</g>
</svg>
