<?xml version="1.0" encoding="UTF-8"?>
<svg xmlns="http://www.w3.org/2000/svg" xmlns:xlink="http://www.w3.org/1999/xlink" width="70px" height="70px" viewBox="0 0 70 70" version="1.1">
<g id="surface1">
<path style="fill-rule:evenodd;fill:rgb(100%,100%,100%);fill-opacity:1;stroke-width:1.5;stroke-linecap:butt;stroke-linejoin:round;stroke:rgb(0%,0%,0%);stroke-opacity:1;stroke-miterlimit:4;" d="M 9 36 C 12.390067 35.030692 19.109933 36.429408 22.5 34.001116 C 25.890067 36.429408 32.609933 35.030692 36 36 C 36 36 37.649833 36.5399 39.000837 37.998884 C 38.320312 38.970703 37.351004 38.990792 36 38.501116 C 32.609933 37.529297 25.890067 38.960658 22.5 37.499163 C 19.109933 38.960658 12.390067 37.529297 9 38.501116 C 7.648996 38.990792 6.679687 38.970703 5.999163 37.998884 C 7.350167 36.060268 9 36 9 36 Z M 9 36 " transform="matrix(1.555556,0,0,1.555556,0,0)"/>
<path style="fill-rule:evenodd;fill:rgb(100%,100%,100%);fill-opacity:1;stroke-width:1.5;stroke-linecap:butt;stroke-linejoin:round;stroke:rgb(0%,0%,0%);stroke-opacity:1;stroke-miterlimit:4;" d="M 14.999163 31.999721 C 17.500279 34.500837 27.499721 34.500837 30.000837 31.999721 C 30.500558 30.500558 30.000837 30.000837 30.000837 30.000837 C 30.000837 27.499721 27.499721 26.000558 27.499721 26.000558 C 32.999163 24.498884 33.498884 14.499442 22.5 10.499163 C 11.501116 14.499442 12.000837 24.498884 17.500279 26.000558 C 17.500279 26.000558 14.999163 27.499721 14.999163 30.000837 C 14.999163 30.000837 14.499442 30.500558 14.999163 31.999721 Z M 14.999163 31.999721 " transform="matrix(1.555556,0,0,1.555556,0,0)"/>
<path style="fill-rule:evenodd;fill:rgb(100%,100%,100%);fill-opacity:1;stroke-width:1.5;stroke-linecap:butt;stroke-linejoin:round;stroke:rgb(0%,0%,0%);stroke-opacity:1;stroke-miterlimit:4;" d="M 25.001116 8.000558 C 25.001116 9.381696 23.881138 10.499163 22.5 10.499163 C 21.118862 10.499163 19.998884 9.381696 19.998884 8.000558 C 19.998884 6.61942 21.118862 5.499442 22.5 5.499442 C 23.881138 5.499442 25.001116 6.61942 25.001116 8.000558 Z M 25.001116 8.000558 " transform="matrix(1.555556,0,0,1.555556,0,0)"/>
<path style="fill:none;stroke-width:1.5;stroke-linecap:round;stroke-linejoin:miter;stroke:rgb(0%,0%,0%);stroke-opacity:1;stroke-miterlimit:4;" d="M 17.500279 26.000558 L 27.499721 26.000558 M 14.999163 30.000837 L 30.000837 30.000837 M 22.5 15.498884 L 22.5 20.501116 M 19.998884 18 L 25.001116 18 " transform="matrix(1.555556,0,0,1.555556,0,0)"/>
</g>
</svg>
