<svg width="24" height="24" viewBox="0 0 24 24" fill="none" xmlns="http://www.w3.org/2000/svg">
<path d="M6.97363 7.54395C7.31303 7.41675 7.68697 7.41675 8.02637 7.54395L11.5264 8.85645C12.1117 9.07596 12.4999 9.63558 12.5 10.2607V11C12.5 11.8284 11.8284 12.5 11 12.5H4C3.17157 12.5 2.5 11.8284 2.5 11V10.2607L2.50488 10.1445C2.54967 9.56708 2.9248 9.06226 3.47363 8.85645L6.97363 7.54395Z" fill="white" stroke="black"/>
<circle cx="7.5" cy="4.75" r="2.25" stroke="black"/>
<path d="M15.9736 16.5439C16.313 16.4168 16.687 16.4168 17.0264 16.5439L20.5264 17.8564C21.1117 18.076 21.4999 18.6356 21.5 19.2607V20C21.5 20.8284 20.8284 21.5 20 21.5H13C12.1716 21.5 11.5 20.8284 11.5 20V19.2607L11.5049 19.1445C11.5497 18.5671 11.9248 18.0623 12.4736 17.8564L15.9736 16.5439Z" fill="white" stroke="black"/>
<circle cx="16.5" cy="13.75" r="2.25" stroke="black"/>
<path d="M11 4H14.5C15.6046 4 16.5 4.89543 16.5 6V8.5" stroke="black"/>
<path d="M16.5 10L14.3349 6.25H18.6651L16.5 10Z" fill="black"/>
<path d="M10 20H6.5C5.39543 20 4.5 19.1046 4.5 18L4.5 15.5" stroke="black"/>
<path d="M4.5 14L6.66506 17.75H2.33494L4.5 14Z" fill="black"/>
</svg>
