<svg width="32" height="32" viewBox="0 0 32 32" fill="none" xmlns="http://www.w3.org/2000/svg">
<path d="M9.14844 9.76172C9.37482 9.67682 9.62518 9.67682 9.85156 9.76172L15.3516 11.8242C15.7417 11.9706 15.9999 12.3441 16 12.7607V15C16 15.5523 15.5523 16 15 16H4C3.44772 16 3 15.5523 3 15V12.7607L3.01172 12.6074C3.05863 12.305 3.24216 12.0399 3.50879 11.8896L3.64844 11.8242L9.14844 9.76172Z" fill="white" stroke="black" stroke-width="2"/>
<circle cx="9.5" cy="5.75" r="2.75" fill="white" stroke="black" stroke-width="2"/>
<path d="M22.1484 22.7617C22.3748 22.6768 22.6252 22.6768 22.8516 22.7617L28.3516 24.8242C28.7417 24.9706 28.9999 25.3441 29 25.7607V28C29 28.5523 28.5523 29 28 29H17C16.4477 29 16 28.5523 16 28V25.7607L16.0117 25.6074C16.0586 25.305 16.2422 25.0399 16.5088 24.8896L16.6484 24.8242L22.1484 22.7617Z" fill="white" stroke="black" stroke-width="2"/>
<circle cx="22.5" cy="18.75" r="2.75" fill="white" stroke="black" stroke-width="2"/>
<path d="M14 27H10.375C9.27043 27 8.375 26.1046 8.375 25V21" stroke="black" stroke-width="2"/>
<path d="M8.375 18L11.2978 21.75H5.45216L8.375 18Z" fill="black"/>
<path d="M17 5L20.625 5C21.7296 5 22.625 5.89543 22.625 7V11" stroke="black" stroke-width="2"/>
<path d="M22.625 14L19.7022 10.25H25.5478L22.625 14Z" fill="black"/>
</svg>
