<?xml version="1.0" encoding="UTF-8"?>
<svg xmlns="http://www.w3.org/2000/svg" xmlns:xlink="http://www.w3.org/1999/xlink" width="70px" height="70px" viewBox="0 0 70 70" version="1.1">
<g id="surface1">
<path style=" stroke:none;fill-rule:evenodd;fill:rgb(0%,0%,0%);fill-opacity:1;" d="M 13.609375 18.667969 C 13.609375 16.304688 11.695312 14.390625 9.332031 14.390625 C 6.972656 14.390625 5.054688 16.304688 5.054688 18.667969 C 5.054688 21.027344 6.972656 22.945312 9.332031 22.945312 C 11.695312 22.945312 13.609375 21.027344 13.609375 18.667969 Z M 13.609375 18.667969 "/>
<path style=" stroke:none;fill-rule:evenodd;fill:rgb(0%,0%,0%);fill-opacity:1;" d="M 26.054688 14 C 26.054688 11.636719 24.140625 9.722656 21.777344 9.722656 C 19.414062 9.722656 17.5 11.636719 17.5 14 C 17.5 16.363281 19.414062 18.277344 21.777344 18.277344 C 24.140625 18.277344 26.054688 16.363281 26.054688 14 Z M 26.054688 14 "/>
<path style=" stroke:none;fill-rule:evenodd;fill:rgb(0%,0%,0%);fill-opacity:1;" d="M 39.277344 12.445312 C 39.277344 10.082031 37.363281 8.167969 35 8.167969 C 32.636719 8.167969 30.722656 10.082031 30.722656 12.445312 C 30.722656 14.808594 32.636719 16.722656 35 16.722656 C 37.363281 16.722656 39.277344 14.808594 39.277344 12.445312 Z M 39.277344 12.445312 "/>
<path style=" stroke:none;fill-rule:evenodd;fill:rgb(0%,0%,0%);fill-opacity:1;" d="M 52.5 14 C 52.5 11.636719 50.585938 9.722656 48.222656 9.722656 C 45.859375 9.722656 43.945312 11.636719 43.945312 14 C 43.945312 16.363281 45.859375 18.277344 48.222656 18.277344 C 50.585938 18.277344 52.5 16.363281 52.5 14 Z M 52.5 14 "/>
<path style=" stroke:none;fill-rule:evenodd;fill:rgb(0%,0%,0%);fill-opacity:1;" d="M 64.945312 18.667969 C 64.945312 16.304688 63.027344 14.390625 60.667969 14.390625 C 58.304688 14.390625 56.390625 16.304688 56.390625 18.667969 C 56.390625 21.027344 58.304688 22.945312 60.667969 22.945312 C 63.027344 22.945312 64.945312 21.027344 64.945312 18.667969 Z M 64.945312 18.667969 "/>
<path style="fill-rule:evenodd;fill:rgb(0%,0%,0%);fill-opacity:1;stroke-width:1.5;stroke-linecap:butt;stroke-linejoin:round;stroke:rgb(0%,0%,0%);stroke-opacity:1;stroke-miterlimit:4;" d="M 9 26.000558 C 17.500279 24.498884 30.000837 24.498884 36 26.000558 L 38.501116 13.5 L 31.000279 25.001116 L 30.69894 10.900949 L 25.500837 24.498884 L 22.5 9.999442 L 19.499163 24.498884 L 14.30106 10.900949 L 13.999721 25.001116 L 6.498884 13.5 Z M 9 26.000558 " transform="matrix(1.555556,0,0,1.555556,0,0)"/>
<path style="fill-rule:evenodd;fill:rgb(0%,0%,0%);fill-opacity:1;stroke-width:1.5;stroke-linecap:butt;stroke-linejoin:round;stroke:rgb(0%,0%,0%);stroke-opacity:1;stroke-miterlimit:4;" d="M 9 26.000558 C 9 27.999442 10.499163 27.999442 11.501116 30.000837 C 12.500558 31.5 12.500558 31.000279 12.000837 33.498884 C 10.499163 34.500837 10.499163 36 10.499163 36 C 9 37.499163 10.998884 38.501116 10.998884 38.501116 C 17.500279 39.500558 27.499721 39.500558 34.001116 38.501116 C 34.001116 38.501116 35.500279 37.499163 34.001116 36 C 34.001116 36 34.500837 34.500837 32.999163 33.498884 C 32.499442 31.000279 32.499442 31.5 33.498884 30.000837 C 34.500837 27.999442 36 27.999442 36 26.000558 C 27.499721 24.498884 17.500279 24.498884 9 26.000558 Z M 9 26.000558 " transform="matrix(1.555556,0,0,1.555556,0,0)"/>
<path style="fill:none;stroke-width:1.5;stroke-linecap:butt;stroke-linejoin:round;stroke:rgb(0%,0%,0%);stroke-opacity:1;stroke-miterlimit:4;" d="M 10.998884 38.501116 C 18.446987 41.090123 26.553013 41.090123 34.001116 38.501116 " transform="matrix(1.555556,0,0,1.555556,0,0)"/>
<path style="fill:none;stroke-width:1.5;stroke-linecap:round;stroke-linejoin:round;stroke:rgb(92.54902%,92.54902%,92.54902%);stroke-opacity:1;stroke-miterlimit:4;" d="M 10.998884 28.998884 C 18.446987 26.409877 26.553013 26.409877 34.001116 28.998884 M 12.500558 31.5 L 32.499442 31.5 M 11.501116 34.500837 C 18.642857 36.863839 26.357143 36.863839 33.498884 34.500837 M 10.499163 37.499163 C 18.251116 40.329241 26.748884 40.329241 34.500837 37.499163 " transform="matrix(1.555556,0,0,1.555556,0,0)"/>
</g>
</svg>
