<?xml version="1.0" encoding="UTF-8"?>
<svg xmlns="http://www.w3.org/2000/svg" xmlns:xlink="http://www.w3.org/1999/xlink" width="70px" height="70px" viewBox="0 0 70 70" version="1.1">
<g id="surface1">
<path style="fill-rule:evenodd;fill:rgb(0%,0%,0%);fill-opacity:1;stroke-width:1.5;stroke-linecap:round;stroke-linejoin:round;stroke:rgb(0%,0%,0%);stroke-opacity:1;stroke-miterlimit:4;" d="M 22.000279 9.999442 C 32.499442 10.998884 38.501116 18 37.998884 39.000837 L 14.999163 39.000837 C 14.999163 30.000837 25.001116 32.499442 22.999721 18 " transform="matrix(1.555556,0,0,1.555556,0,0)"/>
<path style="fill-rule:evenodd;fill:rgb(0%,0%,0%);fill-opacity:1;stroke-width:1.5;stroke-linecap:round;stroke-linejoin:round;stroke:rgb(0%,0%,0%);stroke-opacity:1;stroke-miterlimit:4;" d="M 23.999163 18 C 24.380859 20.910435 18.449498 25.370257 16.001116 27 C 13.000279 28.998884 13.181083 31.339286 10.998884 31.000279 C 9.959263 30.061105 12.410156 27.959263 10.998884 27.999442 C 9.999442 27.999442 11.189732 29.229911 9.999442 30.000837 C 9 30.000837 5.999163 31.000279 5.999163 26.000558 C 5.999163 23.999163 12.000837 13.999721 12.000837 13.999721 C 12.000837 13.999721 13.88923 12.098772 13.999721 10.499163 C 13.268973 9.499721 13.5 8.500279 13.5 7.500837 C 14.499442 6.498884 16.500837 9.999442 16.500837 9.999442 L 18.499721 9.999442 C 18.499721 9.999442 19.280692 8.000558 21.000837 7.001116 C 22.000279 7.001116 22.000279 9.999442 22.000279 9.999442 " transform="matrix(1.555556,0,0,1.555556,0,0)"/>
<path style="fill-rule:evenodd;fill:rgb(92.54902%,92.54902%,92.54902%);fill-opacity:1;stroke-width:1.5;stroke-linecap:round;stroke-linejoin:round;stroke:rgb(92.54902%,92.54902%,92.54902%);stroke-opacity:1;stroke-miterlimit:4;" d="M 9.499721 25.500837 C 9.499721 25.777065 9.276228 26.000558 9 26.000558 C 8.723772 26.000558 8.500279 25.777065 8.500279 25.500837 C 8.500279 25.224609 8.723772 25.001116 9 25.001116 C 9.276228 25.001116 9.499721 25.224609 9.499721 25.500837 Z M 14.92885 15.75 C 14.662667 16.252232 14.306083 16.686663 14.014788 16.867467 C 13.723493 17.04827 13.545201 16.945312 13.557757 16.601283 C 13.570312 16.257254 13.768694 15.732422 14.070033 15.250279 C 14.338728 14.748047 14.692801 14.313616 14.984096 14.132812 C 15.275391 13.952009 15.453683 14.054967 15.441127 14.398996 C 15.431083 14.743025 15.232701 15.265346 14.92885 15.75 Z M 14.92885 15.75 " transform="matrix(1.555556,0,0,1.555556,0,0)"/>
<path style=" stroke:none;fill-rule:evenodd;fill:rgb(92.54902%,92.54902%,92.54902%);fill-opacity:1;" d="M 38.1875 16.179688 L 37.488281 18.433594 L 38.265625 18.667969 C 43.167969 20.222656 47.054688 22.539062 50.554688 29.167969 C 54.054688 35.792969 55.609375 45.203125 54.832031 60.667969 L 54.753906 61.445312 L 58.253906 61.445312 L 58.332031 60.667969 C 59.109375 45.019531 56.964844 34.457031 53.277344 27.472656 C 49.589844 20.488281 44.269531 17.140625 38.980469 16.332031 Z M 38.1875 16.179688 "/>
</g>
</svg>
