<?xml version="1.0" encoding="UTF-8"?>
<svg xmlns="http://www.w3.org/2000/svg" xmlns:xlink="http://www.w3.org/1999/xlink" width="70px" height="70px" viewBox="0 0 70 70" version="1.1">
<g id="surface1">
<path style="fill-rule:nonzero;fill:rgb(0%,0%,0%);fill-opacity:1;stroke-width:1.5;stroke-linecap:round;stroke-linejoin:miter;stroke:rgb(0%,0%,0%);stroke-opacity:1;stroke-miterlimit:4;" d="M 22.5 9 C 20.988281 8.997489 19.604632 9.848772 18.924107 11.197266 C 18.243583 12.54827 18.381696 14.165458 19.280692 15.380859 C 17.427455 16.440569 16.214565 18.34654 16.041295 20.476004 C 15.868025 22.605469 16.754464 24.682199 18.409319 26.030692 C 15.410993 27.090402 10.998884 31.580357 10.998884 39.500558 L 34.001116 39.500558 C 34.001116 31.580357 29.589007 27.090402 26.590681 26.030692 C 28.25558 24.687221 29.149554 22.60798 28.973772 20.473493 C 28.800502 18.341518 27.582589 16.435547 25.719308 15.380859 C 26.61077 14.162946 26.743862 12.550781 26.065848 11.202288 C 25.385324 9.856306 24.009208 9.005022 22.5 9 Z M 22.5 9 " transform="matrix(1.555556,0,0,1.555556,0,0)"/>
</g>
</svg>
