<svg width="24" height="24" viewBox="0 0 24 24" fill="none" xmlns="http://www.w3.org/2000/svg">
<path d="M11.5527 3.3418C11.8343 3.20103 12.1657 3.20103 12.4473 3.3418L20.4473 7.3418C20.786 7.51121 21 7.8576 21 8.23633V20C21 20.5523 20.5523 21 20 21H4C3.44772 21 3 20.5523 3 20V8.23633C3 7.90492 3.16375 7.59802 3.43164 7.41309L3.55273 7.3418L11.5527 3.3418Z" stroke="black" stroke-width="2"/>
<path d="M8 20V15C8 13.8954 8.89543 13 10 13H14C15.1046 13 16 13.8954 16 15V20" stroke="black" stroke-width="2"/>
</svg>
