<svg width="24" height="24" viewBox="0 0 24 24" fill="none" xmlns="http://www.w3.org/2000/svg">
<path d="M18 15V17V17C18 17.5523 17.5523 18 17 18H16H14H7V18C6.44772 18 6 17.5523 6 17V5V5C6 4.44772 6.44772 4 7 4H8H17V4C17.5523 4 18 4.44772 18 5V7" stroke="#FF6666" stroke-width="2"/>
<path d="M21 11L18 13.5981V8.40192L21 11Z" fill="black"/>
<path d="M8 11H18" stroke="black" stroke-width="2"/>
<path d="M6 5.77441C6.00029 5.09209 6.66901 4.61037 7.31641 4.82617L12.3164 6.49316C12.7246 6.62934 13 7.01111 13 7.44141V19.2256C12.9997 19.8651 12.4124 20.3282 11.8057 20.2061L11.6836 20.1738L6.68359 18.5068C6.27543 18.3707 6.00005 17.9889 6 17.5586V5.77441Z" fill="white" stroke="#FF6666" stroke-width="2"/>
</svg>
