<svg width="32" height="32" viewBox="0 0 32 32" fill="none" xmlns="http://www.w3.org/2000/svg">
<path d="M10.6484 14.0742C10.8748 13.9893 11.1252 13.9893 11.3516 14.0742L18.3516 16.6992C18.7417 16.8456 18.9999 17.2191 19 17.6357V21C19 21.5523 18.5523 22 18 22H4C3.44772 22 3 21.5523 3 21V17.6357C3.00009 17.2711 3.19792 16.9398 3.50879 16.7646L3.64844 16.6992L10.6484 14.0742Z" fill="white" stroke="black" stroke-width="2"/>
<circle cx="11" cy="9.5" r="3.5" fill="white" stroke="black" stroke-width="2"/>
<path d="M19.6484 17.0742C19.8748 16.9893 20.1252 16.9893 20.3516 17.0742L27.3516 19.6992C27.7417 19.8456 27.9999 20.2191 28 20.6357V24C28 24.5523 27.5523 25 27 25H13C12.4477 25 12 24.5523 12 24V20.6357C12.0001 20.2711 12.1979 19.9398 12.5088 19.7646L12.6484 19.6992L19.6484 17.0742Z" fill="white" stroke="black" stroke-width="2"/>
<circle cx="20" cy="12.5" r="3.5" fill="white" stroke="black" stroke-width="2"/>
</svg>
