<?xml version="1.0" encoding="UTF-8"?>
<svg xmlns="http://www.w3.org/2000/svg" xmlns:xlink="http://www.w3.org/1999/xlink" width="70px" height="70px" viewBox="0 0 70 70" version="1.1">
<g id="surface1">
<path style="fill:none;stroke-width:1.5;stroke-linecap:round;stroke-linejoin:miter;stroke:rgb(0%,0%,0%);stroke-opacity:1;stroke-miterlimit:4;" d="M 22.5 11.629185 L 22.5 5.999163 M 19.998884 8.000558 L 25.001116 8.000558 " transform="matrix(1.555556,0,0,1.555556,0,0)"/>
<path style="fill-rule:evenodd;fill:rgb(100%,100%,100%);fill-opacity:1;stroke-width:1.5;stroke-linecap:butt;stroke-linejoin:miter;stroke:rgb(0%,0%,0%);stroke-opacity:1;stroke-miterlimit:4;" d="M 22.5 25.001116 C 22.5 25.001116 27 17.500279 25.500837 14.499442 C 25.500837 14.499442 24.498884 12.000837 22.5 12.000837 C 20.501116 12.000837 19.499163 14.499442 19.499163 14.499442 C 18 17.500279 22.5 25.001116 22.5 25.001116 " transform="matrix(1.555556,0,0,1.555556,0,0)"/>
<path style="fill-rule:evenodd;fill:rgb(100%,100%,100%);fill-opacity:1;stroke-width:1.5;stroke-linecap:round;stroke-linejoin:round;stroke:rgb(0%,0%,0%);stroke-opacity:1;stroke-miterlimit:4;" d="M 11.501116 36.999442 C 17.000558 40.5 27 40.5 32.499442 36.999442 L 32.499442 30.000837 C 32.499442 30.000837 41.499442 25.500837 38.501116 19.499163 C 34.500837 13.000279 25.001116 16.001116 22.5 23.499442 L 22.5 27 L 22.5 23.499442 C 18.999442 16.001116 9.499721 13.000279 6.498884 19.499163 C 3.500558 25.500837 11.501116 29.501116 11.501116 29.501116 Z M 11.501116 36.999442 " transform="matrix(1.555556,0,0,1.555556,0,0)"/>
<path style="fill:none;stroke-width:1.5;stroke-linecap:round;stroke-linejoin:round;stroke:rgb(0%,0%,0%);stroke-opacity:1;stroke-miterlimit:4;" d="M 11.501116 30.000837 C 17.000558 27 27 27 32.499442 30.000837 M 11.501116 33.498884 C 17.000558 30.500558 27 30.500558 32.499442 33.498884 M 11.501116 36.999442 C 17.000558 34.001116 27 34.001116 32.499442 36.999442 " transform="matrix(1.555556,0,0,1.555556,0,0)"/>
</g>
</svg>
