<?xml version="1.0" encoding="UTF-8"?>
<svg xmlns="http://www.w3.org/2000/svg" xmlns:xlink="http://www.w3.org/1999/xlink" width="70px" height="70px" viewBox="0 0 70 70" version="1.1">
<g id="surface1">
<path style="fill-rule:evenodd;fill:rgb(100%,100%,100%);fill-opacity:1;stroke-width:1.5;stroke-linecap:round;stroke-linejoin:round;stroke:rgb(0%,0%,0%);stroke-opacity:1;stroke-miterlimit:4;" d="M 22.000279 9.999442 C 32.499442 10.998884 38.501116 18 37.998884 39.000837 L 14.999163 39.000837 C 14.999163 30.000837 25.001116 32.499442 22.999721 18 " transform="matrix(1.555556,0,0,1.555556,0,0)"/>
<path style="fill-rule:evenodd;fill:rgb(100%,100%,100%);fill-opacity:1;stroke-width:1.5;stroke-linecap:round;stroke-linejoin:round;stroke:rgb(0%,0%,0%);stroke-opacity:1;stroke-miterlimit:4;" d="M 23.999163 18 C 24.380859 20.910435 18.449498 25.370257 16.001116 27 C 13.000279 28.998884 13.181083 31.339286 10.998884 31.000279 C 9.956752 30.061105 12.410156 27.959263 10.998884 27.999442 C 9.999442 27.999442 11.189732 29.229911 9.999442 30.000837 C 9 30.000837 5.996652 31.000279 5.999163 26.000558 C 5.999163 23.999163 12.000837 13.999721 12.000837 13.999721 C 12.000837 13.999721 13.88923 12.098772 13.999721 10.499163 C 13.268973 9.507254 13.5 8.500279 13.5 7.500837 C 14.499442 6.498884 16.500837 9.999442 16.500837 9.999442 L 18.499721 9.999442 C 18.499721 9.999442 19.280692 8.008092 21.000837 7.001116 C 22.000279 7.001116 22.000279 9.999442 22.000279 9.999442 " transform="matrix(1.555556,0,0,1.555556,0,0)"/>
<path style="fill-rule:evenodd;fill:rgb(0%,0%,0%);fill-opacity:1;stroke-width:1.5;stroke-linecap:round;stroke-linejoin:round;stroke:rgb(0%,0%,0%);stroke-opacity:1;stroke-miterlimit:4;" d="M 9.499721 25.500837 C 9.499721 25.777065 9.276228 26.000558 9 26.000558 C 8.723772 26.000558 8.500279 25.777065 8.500279 25.500837 C 8.500279 25.224609 8.723772 25.001116 9 25.001116 C 9.276228 25.001116 9.499721 25.224609 9.499721 25.500837 Z M 14.933873 15.75 C 14.665179 16.217076 14.333705 16.601283 14.0625 16.756975 C 13.793806 16.915179 13.628069 16.817243 13.628069 16.505859 C 13.63058 16.194475 13.796317 15.714844 14.067522 15.250279 C 14.336217 14.783203 14.66769 14.398996 14.936384 14.243304 C 15.205078 14.0851 15.370815 14.180525 15.370815 14.49442 C 15.370815 14.805804 15.202567 15.285435 14.933873 15.75 Z M 14.933873 15.75 " transform="matrix(1.555556,0,0,1.555556,0,0)"/>
</g>
</svg>
