<?xml version="1.0" encoding="UTF-8"?>
<svg xmlns="http://www.w3.org/2000/svg" xmlns:xlink="http://www.w3.org/1999/xlink" width="70px" height="70px" viewBox="0 0 70 70" version="1.1">
<g id="surface1">
<path style="fill-rule:nonzero;fill:rgb(100%,100%,100%);fill-opacity:1;stroke-width:1.5;stroke-linecap:round;stroke-linejoin:miter;stroke:rgb(0%,0%,0%);stroke-opacity:1;stroke-miterlimit:4;" d="M 22.5 9 C 20.290179 9 18.499721 10.790458 18.499721 13.000279 C 18.499721 13.88923 18.791016 14.710379 19.280692 15.380859 C 17.32952 16.500837 16.001116 18.590123 16.001116 21.000837 C 16.001116 23.029855 16.94029 24.840402 18.409319 26.030692 C 15.410993 27.090402 10.998884 31.580357 10.998884 39.500558 L 34.001116 39.500558 C 34.001116 31.580357 29.589007 27.090402 26.590681 26.030692 C 28.05971 24.840402 28.998884 23.029855 28.998884 21.000837 C 28.998884 18.590123 27.67048 16.500837 25.719308 15.380859 C 26.208984 14.710379 26.500279 13.88923 26.500279 13.000279 C 26.500279 10.790458 24.709821 9 22.5 9 Z M 22.5 9 " transform="matrix(1.555556,0,0,1.555556,0,0)"/>
</g>
</svg>
